# xmcd
#
# Track frame offsets: 
#        150
#        14762
#        31945
#        51362
#        73778
#        99913
#        151782
#        167004
#        200969
#        236236
#        260542
#        288097
#
# Disc length: 4264 seconds
#
# Revision: 0
# Processed by: cddbd v1.5PL3 Copyright (c) Steve Scherf et al.
# Submitted via: ExactAudioCopy v0.95a4
#
DISCID=a910a60c
DTITLE=Jeff Healy Band - Live 88 90
DYEAR=2001
DGENRE=Blues
TTITLE0=Help Me
TTITLE1=Early In The Morning
TTITLE2=One Foot On The Gravel
TTITLE3=White Room
TTITLE4=Foxy Lady
TTITLE5=Don't Let Your Change Go By
TTITLE6=Like A Rolling Stone
TTITLE7=Think I Love You
TTITLE8=While My Guitar  Gently Weeps
TTITLE9=Down In The Alley
TTITLE10=Good Morning Blues
TTITLE11=Can'T Find My Way Home
EXTD=
EXTT0=
EXTT1=
EXTT2=
EXTT3=
EXTT4=
EXTT5=
EXTT6=
EXTT7=
EXTT8=
EXTT9=
EXTT10=
EXTT11=
PLAYORDER=
